<?xml version="1.0" encoding="iso-8859-1"?>
<!-- Generator: Adobe Illustrator 19.0.0, SVG Export Plug-In . SVG Version: 6.00 Build 0)  -->
<svg version="1.1" id="Capa_1" xmlns="http://www.w3.org/2000/svg" xmlns:xlink="http://www.w3.org/1999/xlink" x="0px" y="0px"
	 viewBox="0 0 512 512" style="enable-background:new 0 0 512 512;" xml:space="preserve">
<g>
	<g>
		<path d="M385.19,159.718l12.811-16.07l6.672,5.319c2.774,2.212,6.144,3.385,9.641,3.385c0.587,0,1.178-0.033,1.771-0.1
			c4.119-0.465,7.81-2.506,10.393-5.747l9.994-12.536c2.583-3.241,3.75-7.294,3.286-11.412c-0.465-4.118-2.506-7.809-5.746-10.393
			l-25.073-19.987c-6.69-5.333-16.471-4.229-21.805,2.461l-9.994,12.536c-2.583,3.241-3.75,7.294-3.285,11.413
			c0.465,4.118,2.505,7.809,5.746,10.393l6.672,5.318l-12.87,16.145c-26.996-19.658-59.078-32.725-93.869-36.824V88.941
			c14.755-8.397,24.048-24.131,24.048-41.36C303.58,21.345,282.235,0,255.999,0c-26.236,0-47.581,21.345-47.581,47.581
			c0,17.227,9.294,32.962,24.048,41.36v24.678c-34.792,4.099-66.873,17.166-93.869,36.824l-12.87-16.144l6.671-5.318
			c3.241-2.583,5.281-6.274,5.746-10.393c0.465-4.119-0.702-8.171-3.285-11.412l-9.994-12.537
			c-5.334-6.689-15.116-7.792-21.805-2.46l-25.071,19.985c-3.241,2.583-5.282,6.274-5.747,10.393
			c-0.464,4.118,0.702,8.171,3.286,11.412l9.994,12.537c2.583,3.241,6.274,5.282,10.393,5.747c0.592,0.067,1.183,0.1,1.771,0.1
			c3.497,0,6.867-1.173,9.642-3.385l6.672-5.319l12.811,16.07c-43.219,36.694-70.697,91.392-70.697,152.395
			C56.112,422.331,145.781,512,255.999,512s199.887-89.669,199.887-199.887C455.886,251.11,428.408,196.412,385.19,159.718z
			 M388.868,116.524l9.993-12.536c0.178-0.222,0.503-0.259,0.726-0.082l25.073,19.987c0.041,0.033,0.167,0.133,0.19,0.345
			c0.023,0.212-0.076,0.338-0.109,0.38l-9.994,12.537c-0.033,0.042-0.133,0.167-0.345,0.191c-0.214,0.022-0.338-0.076-0.379-0.109
			L388.95,117.25c-0.042-0.033-0.167-0.133-0.191-0.346C388.735,116.691,388.834,116.565,388.868,116.524z M123.049,117.25
			l-25.073,19.987c-0.042,0.033-0.167,0.131-0.38,0.109c-0.212-0.024-0.312-0.149-0.345-0.191l-9.994-12.537
			c-0.033-0.041-0.133-0.167-0.109-0.379c0.024-0.212,0.149-0.313,0.191-0.345l25.073-19.987c0.095-0.076,0.208-0.113,0.321-0.113
			c0.152,0,0.302,0.067,0.404,0.194l9.994,12.537c0.033,0.041,0.133,0.167,0.109,0.379
			C123.216,117.116,123.09,117.217,123.049,117.25z M223.42,47.581C223.418,29.616,238.034,15,255.999,15
			c17.965,0,32.581,14.616,32.581,32.581c0,9.256-3.931,17.869-10.497,23.934c-3.317-8.981-11.964-15.402-22.083-15.402
			s-18.766,6.421-22.083,15.402C227.351,65.449,223.42,56.836,223.42,47.581z M264.531,79.645v32.775
			c-2.831-0.12-5.673-0.194-8.532-0.194s-5.702,0.075-8.532,0.194V79.645c0-4.705,3.828-8.532,8.532-8.532
			S264.531,74.941,264.531,79.645z M255.999,497c-101.947,0-184.887-82.94-184.887-184.887s82.94-184.887,184.887-184.887
			s184.887,82.94,184.887,184.887S357.946,497,255.999,497z"/>
	</g>
</g>
<g>
	<g>
		<path d="M356.494,187.844c-28.446-23.059-63.841-35.531-100.428-35.534c-0.023,0-0.044-0.003-0.067-0.003
			c-0.017,0-0.032,0.002-0.049,0.003c-2.609,0.002-5.224,0.062-7.843,0.191c-39.672,1.95-77,18.504-105.108,46.612
			c-28.108,28.108-44.662,65.436-46.612,105.106c-0.128,2.61-0.188,5.215-0.19,7.815c0,0.026-0.004,0.052-0.004,0.078
			c0,0.036,0.005,0.072,0.005,0.108c0.017,36.573,12.481,71.949,35.53,100.385c1.482,1.829,3.647,2.777,5.831,2.777
			c1.659,0,3.329-0.548,4.718-1.674c3.218-2.608,3.712-7.331,1.104-10.549c-19.319-23.833-30.424-53.057-31.989-83.546h16.348
			c4.142,0,7.5-3.358,7.5-7.5c0-4.142-3.358-7.5-7.5-7.5h-16.351c1.845-35.816,16.827-69.505,42.216-94.894
			c25.389-25.389,59.077-40.371,94.894-42.216v16.352c0,4.142,3.358,7.5,7.5,7.5c4.142,0,7.5-3.358,7.5-7.5v-16.347
			c30.49,1.568,59.715,12.669,83.55,31.989c3.218,2.609,7.941,2.115,10.549-1.104C360.206,195.175,359.712,190.453,356.494,187.844z
			"/>
	</g>
</g>
<g>
	<g>
		<path d="M349.479,218.632c-2.929-2.929-7.678-2.929-10.606,0l-72.411,72.411c-3.154-1.573-6.706-2.463-10.463-2.463
			c-12.976,0-23.532,10.557-23.532,23.532c0,3.757,0.89,7.309,2.463,10.463l-12.29,12.29c-2.929,2.929-2.929,7.678,0,10.606
			c1.464,1.464,3.384,2.197,5.303,2.197c1.919,0,3.839-0.732,5.303-2.197l12.29-12.29c3.154,1.573,6.706,2.463,10.463,2.463
			c12.976,0,23.532-10.557,23.532-23.532c0-3.757-0.89-7.309-2.462-10.463l72.411-72.411
			C352.409,226.31,352.409,221.561,349.479,218.632z M255.999,320.645c-4.705,0-8.532-3.828-8.532-8.532
			c0-4.704,3.828-8.532,8.532-8.532s8.532,3.828,8.532,8.532C264.531,316.817,260.704,320.645,255.999,320.645z"/>
	</g>
</g>
<g>
	<g>
		<path d="M415.801,312.004c-0.017-36.574-12.482-71.951-35.533-100.387c-2.608-3.218-7.331-3.712-10.549-1.104
			c-3.218,2.608-3.712,7.331-1.104,10.549c19.32,23.834,30.426,53.06,31.991,83.55h-16.349c-4.142,0-7.5,3.358-7.5,7.5
			c0,4.142,3.358,7.5,7.5,7.5h16.352c-1.846,35.816-16.828,69.505-42.216,94.894c-25.388,25.388-59.077,40.37-94.894,42.216v-16.351
			c0-4.142-3.358-7.5-7.5-7.5c-4.142,0-7.5,3.358-7.5,7.5v16.348c-30.49-1.565-59.713-12.668-83.547-31.987
			c-3.217-2.608-7.941-2.114-10.549,1.104c-2.608,3.218-2.114,7.941,1.104,10.549c28.457,23.067,63.858,35.538,100.46,35.536
			c2.634,0,5.282-0.064,7.926-0.195c39.671-1.95,76.999-18.504,105.106-46.612c28.108-28.108,44.663-65.436,46.612-105.108
			c0.128-2.609,0.188-5.214,0.19-7.813c0.001-0.028,0.005-0.053,0.005-0.08C415.806,312.076,415.801,312.041,415.801,312.004z"/>
	</g>
</g>
<g>
</g>
<g>
</g>
<g>
</g>
<g>
</g>
<g>
</g>
<g>
</g>
<g>
</g>
<g>
</g>
<g>
</g>
<g>
</g>
<g>
</g>
<g>
</g>
<g>
</g>
<g>
</g>
<g>
</g>
</svg>
